# xmcd
#
# Track frame offsets:
# 182
# 17882
# 40920
#
# Disc length: 767 seconds
#
#
# Revision: 2
# Processed by: cddbd v1.4PL0 Copyright (c) Steve Scherf et al.
# Submitted via: HACP 1.18
#
DISCID=1d02fd03
DTITLE=Marla Glenn - Believer
DYEAR=1995
DGENRE=Pop
TTITLE0=Believer (radio edit)
TTITLE1=Believer (album version)
TTITLE2=You Hurt Me
EXTD=
EXTT0=
EXTT1=
EXTT2=
PLAYORDER=
